<svg width="25" height="25" viewBox="0 0 25 25" fill="none" xmlns="http://www.w3.org/2000/svg">
<path d="M21.875 3.75H3.125C1.79688 3.75 0.664062 4.84375 0.664062 6.21094V18.8672C0.664062 20.1953 1.75781 21.3281 3.125 21.3281H21.875C23.2031 21.3281 24.3359 20.2344 24.3359 18.8672V6.17188C24.3359 4.84375 23.2031 3.75 21.875 3.75ZM21.875 5.50781C21.9141 5.50781 21.9531 5.50781 21.9922 5.50781L12.5 11.6016L3.00781 5.50781C3.04687 5.50781 3.08594 5.50781 3.125 5.50781H21.875ZM21.875 19.4922H3.125C2.73438 19.4922 2.42187 19.1797 2.42187 18.7891V7.22656L11.5625 13.0859C11.8359 13.2812 12.1484 13.3594 12.4609 13.3594C12.7734 13.3594 13.0859 13.2812 13.3594 13.0859L22.5 7.22656V18.8281C22.5781 19.2187 22.2656 19.4922 21.875 19.4922Z" fill="#3674CB" style="fill:#3674CB;fill:color(display-p3 0.2118 0.4549 0.7961);fill-opacity:1;"/>
</svg>
